<svg width="40" height="40" viewBox="0 0 40 40" fill="none" xmlns="http://www.w3.org/2000/svg">
<rect width="40" height="40" rx="20" fill="#8BAC3E"/>
<path d="M12.5 16.6667L19.075 21.0501C19.3489 21.2328 19.6708 21.3303 20 21.3303C20.3292 21.3303 20.6511 21.2328 20.925 21.0501L27.5 16.6667M14.1667 25.8334H25.8333C26.2754 25.8334 26.6993 25.6578 27.0118 25.3453C27.3244 25.0327 27.5 24.6088 27.5 24.1667V15.8334C27.5 15.3914 27.3244 14.9675 27.0118 14.6549C26.6993 14.3423 26.2754 14.1667 25.8333 14.1667H14.1667C13.7246 14.1667 13.3007 14.3423 12.9882 14.6549C12.6756 14.9675 12.5 15.3914 12.5 15.8334V24.1667C12.5 24.6088 12.6756 25.0327 12.9882 25.3453C13.3007 25.6578 13.7246 25.8334 14.1667 25.8334Z" stroke="white" stroke-width="2" stroke-linecap="round" stroke-linejoin="round"/>
</svg>
