<svg width="40" height="40" viewBox="0 0 40 40" fill="none" xmlns="http://www.w3.org/2000/svg">
<rect width="40" height="40" rx="20" fill="white"/>
<path d="M19.9999 13.8719C21.9959 13.8719 22.2326 13.8793 23.0213 13.9155C25.0471 14.0077 25.9934 14.9689 26.0856 16.9798C26.1217 17.7679 26.1286 18.0046 26.1286 20.0005C26.1286 21.9971 26.1211 22.2332 26.0856 23.0213C25.9928 25.0303 25.049 25.9934 23.0213 26.0856C22.2326 26.1217 21.9971 26.1292 19.9999 26.1292C18.004 26.1292 17.7672 26.1217 16.9792 26.0856C14.9483 25.9928 14.0071 25.0272 13.9149 23.0206C13.8787 22.2326 13.8713 21.9965 13.8713 19.9999C13.8713 18.004 13.8793 17.7679 13.9149 16.9792C14.0077 14.9689 14.9515 14.0071 16.9792 13.9149C17.7679 13.8793 18.004 13.8719 19.9999 13.8719ZM19.9999 12.5244C17.9697 12.5244 17.7155 12.5331 16.9181 12.5693C14.2033 12.6939 12.6945 14.2002 12.5699 16.9175C12.5331 17.7155 12.5244 17.9697 12.5244 19.9999C12.5244 22.0301 12.5331 22.2849 12.5693 23.0823C12.6939 25.7972 14.2002 27.306 16.9175 27.4306C17.7155 27.4667 17.9697 27.4754 19.9999 27.4754C22.0301 27.4754 22.2849 27.4667 23.0823 27.4306C25.7947 27.306 27.3072 25.7997 27.4299 23.0823C27.4667 22.2849 27.4754 22.0301 27.4754 19.9999C27.4754 17.9697 27.4667 17.7155 27.4306 16.9181C27.3085 14.2058 25.8003 12.6945 23.0829 12.5699C22.2849 12.5331 22.0301 12.5244 19.9999 12.5244V12.5244ZM19.9999 16.1612C17.88 16.1612 16.1612 17.88 16.1612 19.9999C16.1612 22.1198 17.88 23.8392 19.9999 23.8392C22.1198 23.8392 23.8386 22.1205 23.8386 19.9999C23.8386 17.88 22.1198 16.1612 19.9999 16.1612ZM19.9999 22.4918C18.6238 22.4918 17.5081 21.3767 17.5081 19.9999C17.5081 18.6238 18.6238 17.5081 19.9999 17.5081C21.376 17.5081 22.4918 18.6238 22.4918 19.9999C22.4918 21.3767 21.376 22.4918 19.9999 22.4918ZM23.9906 15.1128C23.4947 15.1128 23.0929 15.5146 23.0929 16.0099C23.0929 16.5051 23.4947 16.9069 23.9906 16.9069C24.4858 16.9069 24.887 16.5051 24.887 16.0099C24.887 15.5146 24.4858 15.1128 23.9906 15.1128Z" fill="#8BAC3E"/>
</svg>
