<svg width="40" height="40" viewBox="0 0 40 40" fill="none" xmlns="http://www.w3.org/2000/svg">
<rect width="40" height="40" rx="20" fill="white"/>
<path d="M12.9882 12.9882C12.6756 13.3007 12.5 13.7246 12.5 14.1667V15C12.5 21.9033 18.0967 27.5 25 27.5H25.8333C26.2754 27.5 26.6993 27.3244 27.0118 27.0118C27.3244 26.6993 27.5 26.2754 27.5 25.8333V23.1008C27.5 22.9259 27.445 22.7553 27.3427 22.6134C27.2404 22.4714 27.096 22.3653 26.93 22.31L23.1858 21.0617C22.9956 20.9984 22.7888 21.0059 22.6036 21.0827C22.4184 21.1596 22.2671 21.3006 22.1775 21.48L21.2358 23.3608C19.1954 22.4389 17.5611 20.8046 16.6392 18.7642L18.52 17.8225C18.6994 17.7329 18.8404 17.5816 18.9173 17.3964C18.9941 17.2112 19.0016 17.0044 18.9383 16.8142L17.69 13.07C17.6348 12.9041 17.5287 12.7598 17.387 12.6575C17.2452 12.5552 17.0748 12.5001 16.9 12.5H14.1667C13.7246 12.5 13.3007 12.6756 12.9882 12.9882Z" stroke="#8BAC3E" stroke-width="2" stroke-linecap="round" stroke-linejoin="round"/>
</svg>
