<svg width="69" height="11" viewBox="0 0 69 11" fill="none" xmlns="http://www.w3.org/2000/svg">
<g clip-path="url(#clip0)">
<path d="M11.0831 4.08249C11.0023 3.82968 10.7607 3.65592 10.4203 3.60572L7.72134 3.20734L6.51432 0.723356C6.36209 0.410124 6.12473 0.230469 5.86304 0.230469C5.60136 0.230469 5.364 0.410124 5.21179 0.723356L4.00481 3.20732L1.30577 3.6057C0.9654 3.6559 0.723831 3.82968 0.642952 4.08245C0.562095 4.33523 0.656975 4.62002 0.903219 4.86383L2.85625 6.79731L2.3952 9.52757C2.33457 9.88669 2.43753 10.1015 2.53461 10.2184C2.64814 10.3551 2.81377 10.4305 3.00099 10.4305C3.14254 10.4305 3.29328 10.3883 3.44895 10.3052L5.86304 9.0161L8.27714 10.3051C8.43285 10.3883 8.58357 10.4304 8.72514 10.4304H8.72518C8.91242 10.4304 9.07805 10.3551 9.19159 10.2183C9.28864 10.1015 9.39162 9.88667 9.33098 9.52752L8.86986 6.79733L10.8229 4.86387C11.0692 4.62006 11.164 4.33525 11.0831 4.08249Z" fill="#FF8412"/>
</g>
<g clip-path="url(#clip1)">
<path d="M25.5158 4.08249C25.4349 3.82968 25.1933 3.65592 24.853 3.60572L22.154 3.20734L20.9469 0.723356C20.7947 0.410124 20.5573 0.230469 20.2957 0.230469C20.034 0.230469 19.7966 0.410124 19.6444 0.723356L18.4374 3.20732L15.7384 3.6057C15.398 3.6559 15.1564 3.82968 15.0756 4.08245C14.9947 4.33523 15.0896 4.62002 15.3358 4.86383L17.2889 6.79731L16.8278 9.52757C16.7672 9.88669 16.8701 10.1015 16.9672 10.2184C17.0808 10.3551 17.2464 10.4305 17.4336 10.4305C17.5752 10.4305 17.7259 10.3883 17.8816 10.3052L20.2957 9.0161L22.7098 10.3051C22.8655 10.3883 23.0162 10.4304 23.1578 10.4304H23.1578C23.345 10.4304 23.5107 10.3551 23.6242 10.2183C23.7213 10.1015 23.8242 9.88667 23.7636 9.52752L23.3025 6.79733L25.2555 4.86387C25.5018 4.62006 25.5966 4.33525 25.5158 4.08249Z" fill="#FF8412"/>
</g>
<g clip-path="url(#clip2)">
<path d="M39.9489 4.08249C39.868 3.82968 39.6264 3.65592 39.2861 3.60572L36.5871 3.20734L35.38 0.723356C35.2278 0.410124 34.9904 0.230469 34.7288 0.230469C34.4671 0.230469 34.2297 0.410124 34.0775 0.723356L32.8705 3.20732L30.1715 3.6057C29.8311 3.6559 29.5896 3.82968 29.5087 4.08245C29.4278 4.33523 29.5227 4.62002 29.7689 4.86383L31.722 6.79731L31.2609 9.52757C31.2003 9.88669 31.3033 10.1015 31.4003 10.2184C31.5139 10.3551 31.6795 10.4305 31.8667 10.4305C32.0083 10.4305 32.159 10.3883 32.3147 10.3052L34.7288 9.0161L37.1429 10.3051C37.2986 10.3883 37.4493 10.4304 37.5909 10.4304H37.5909C37.7781 10.4304 37.9438 10.3551 38.0573 10.2183C38.1544 10.1015 38.2573 9.88667 38.1967 9.52752L37.7356 6.79733L39.6886 4.86387C39.9349 4.62006 40.0297 4.33525 39.9489 4.08249Z" fill="#FF8412"/>
</g>
<g clip-path="url(#clip3)">
<path d="M54.3815 4.08249C54.3006 3.82968 54.059 3.65592 53.7187 3.60572L51.0197 3.20734L49.8127 0.723356C49.6604 0.410124 49.4231 0.230469 49.1614 0.230469C48.8997 0.230469 48.6623 0.410124 48.5101 0.723356L47.3031 3.20732L44.6041 3.6057C44.2637 3.6559 44.0222 3.82968 43.9413 4.08245C43.8604 4.33523 43.9553 4.62002 44.2016 4.86383L46.1546 6.79731L45.6935 9.52757C45.6329 9.88669 45.7359 10.1015 45.8329 10.2184C45.9465 10.3551 46.1121 10.4305 46.2993 10.4305C46.4409 10.4305 46.5916 10.3883 46.7473 10.3052L49.1614 9.0161L51.5755 10.3051C51.7312 10.3883 51.8819 10.4304 52.0235 10.4304H52.0235C52.2108 10.4304 52.3764 10.3551 52.4899 10.2183C52.587 10.1015 52.69 9.88667 52.6293 9.52752L52.1682 6.79733L54.1212 4.86387C54.3675 4.62006 54.4624 4.33525 54.3815 4.08249Z" fill="#FF8412"/>
</g>
<g clip-path="url(#clip4)">
<path d="M68.8146 4.08249C68.7337 3.82968 68.4921 3.65592 68.1518 3.60572L65.4528 3.20734L64.2458 0.723356C64.0935 0.410124 63.8562 0.230469 63.5945 0.230469C63.3328 0.230469 63.0954 0.410124 62.9432 0.723356L61.7363 3.20732L59.0372 3.6057C58.6968 3.6559 58.4553 3.82968 58.3744 4.08245C58.2935 4.33523 58.3884 4.62002 58.6347 4.86383L60.5877 6.79731L60.1266 9.52757C60.066 9.88669 60.169 10.1015 60.2661 10.2184C60.3796 10.3551 60.5452 10.4305 60.7324 10.4305C60.874 10.4305 61.0247 10.3883 61.1804 10.3052L63.5945 9.0161L66.0086 10.3051C66.1643 10.3883 66.315 10.4304 66.4566 10.4304H66.4566C66.6439 10.4304 66.8095 10.3551 66.923 10.2183C67.0201 10.1015 67.1231 9.88667 67.0624 9.52752L66.6013 6.79733L68.5543 4.86387C68.8006 4.62006 68.8955 4.33525 68.8146 4.08249Z" fill="#FF8412"/>
</g>
<defs>
<clipPath id="clip0">
<rect width="10.4966" height="10.6609" fill="white" transform="translate(0.614746)"/>
</clipPath>
<clipPath id="clip1">
<rect width="10.4966" height="10.6609" fill="white" transform="translate(15.0474)"/>
</clipPath>
<clipPath id="clip2">
<rect width="10.4966" height="10.6609" fill="white" transform="translate(29.4805)"/>
</clipPath>
<clipPath id="clip3">
<rect width="10.4966" height="10.6609" fill="white" transform="translate(43.9131)"/>
</clipPath>
<clipPath id="clip4">
<rect width="10.4966" height="10.6609" fill="white" transform="translate(58.3462)"/>
</clipPath>
</defs>
</svg>
