<svg width="69" height="11" viewBox="0 0 69 11" fill="none" xmlns="http://www.w3.org/2000/svg">
<g clip-path="url(#clip0)">
<path d="M10.5831 4.08249C10.5023 3.82968 10.2607 3.65592 9.92034 3.60572L7.22134 3.20734L6.01432 0.723356C5.86209 0.410124 5.62473 0.230469 5.36304 0.230469C5.10136 0.230469 4.864 0.410124 4.71179 0.723356L3.50481 3.20732L0.805766 3.6057C0.4654 3.6559 0.223831 3.82968 0.142952 4.08245C0.0620945 4.33523 0.156975 4.62002 0.403219 4.86383L2.35625 6.79731L1.8952 9.52757C1.83457 9.88669 1.93753 10.1015 2.03461 10.2184C2.14814 10.3551 2.31377 10.4305 2.50099 10.4305C2.64254 10.4305 2.79328 10.3883 2.94895 10.3052L5.36304 9.0161L7.77714 10.3051C7.93285 10.3883 8.08357 10.4304 8.22514 10.4304H8.22518C8.41242 10.4304 8.57805 10.3551 8.69159 10.2183C8.78864 10.1015 8.89162 9.88667 8.83098 9.52752L8.36986 6.79733L10.3229 4.86387C10.5692 4.62006 10.664 4.33525 10.5831 4.08249Z" fill="#FF8412"/>
</g>
<g clip-path="url(#clip1)">
<path d="M25.0158 4.08249C24.9349 3.82968 24.6933 3.65592 24.353 3.60572L21.654 3.20734L20.4469 0.723356C20.2947 0.410124 20.0573 0.230469 19.7957 0.230469C19.534 0.230469 19.2966 0.410124 19.1444 0.723356L17.9374 3.20732L15.2384 3.6057C14.898 3.6559 14.6564 3.82968 14.5756 4.08245C14.4947 4.33523 14.5896 4.62002 14.8358 4.86383L16.7889 6.79731L16.3278 9.52757C16.2672 9.88669 16.3701 10.1015 16.4672 10.2184C16.5808 10.3551 16.7464 10.4305 16.9336 10.4305C17.0752 10.4305 17.2259 10.3883 17.3816 10.3052L19.7957 9.0161L22.2098 10.3051C22.3655 10.3883 22.5162 10.4304 22.6578 10.4304H22.6578C22.845 10.4304 23.0107 10.3551 23.1242 10.2183C23.2213 10.1015 23.3242 9.88667 23.2636 9.52752L22.8025 6.79733L24.7555 4.86387C25.0018 4.62006 25.0966 4.33525 25.0158 4.08249Z" fill="#FF8412"/>
</g>
<g clip-path="url(#clip2)">
<path d="M39.4489 4.08249C39.368 3.82968 39.1264 3.65592 38.7861 3.60572L36.0871 3.20734L34.88 0.723356C34.7278 0.410124 34.4904 0.230469 34.2288 0.230469C33.9671 0.230469 33.7297 0.410124 33.5775 0.723356L32.3705 3.20732L29.6715 3.6057C29.3311 3.6559 29.0896 3.82968 29.0087 4.08245C28.9278 4.33523 29.0227 4.62002 29.2689 4.86383L31.222 6.79731L30.7609 9.52757C30.7003 9.88669 30.8033 10.1015 30.9003 10.2184C31.0139 10.3551 31.1795 10.4305 31.3667 10.4305C31.5083 10.4305 31.659 10.3883 31.8147 10.3052L34.2288 9.0161L36.6429 10.3051C36.7986 10.3883 36.9493 10.4304 37.0909 10.4304H37.0909C37.2781 10.4304 37.4438 10.3551 37.5573 10.2183C37.6544 10.1015 37.7573 9.88667 37.6967 9.52752L37.2356 6.79733L39.1886 4.86387C39.4349 4.62006 39.5297 4.33525 39.4489 4.08249Z" fill="#FF8412"/>
</g>
<g clip-path="url(#clip3)">
<path d="M53.8815 4.08249C53.8006 3.82968 53.559 3.65592 53.2187 3.60572L50.5197 3.20734L49.3127 0.723356C49.1604 0.410124 48.9231 0.230469 48.6614 0.230469C48.3997 0.230469 48.1623 0.410124 48.0101 0.723356L46.8031 3.20732L44.1041 3.6057C43.7637 3.6559 43.5222 3.82968 43.4413 4.08245C43.3604 4.33523 43.4553 4.62002 43.7016 4.86383L45.6546 6.79731L45.1935 9.52757C45.1329 9.88669 45.2359 10.1015 45.3329 10.2184C45.4465 10.3551 45.6121 10.4305 45.7993 10.4305C45.9409 10.4305 46.0916 10.3883 46.2473 10.3052L48.6614 9.0161L51.0755 10.3051C51.2312 10.3883 51.3819 10.4304 51.5235 10.4304H51.5235C51.7108 10.4304 51.8764 10.3551 51.9899 10.2183C52.087 10.1015 52.19 9.88667 52.1293 9.52752L51.6682 6.79733L53.6212 4.86387C53.8675 4.62006 53.9624 4.33525 53.8815 4.08249Z" fill="#C9C9C9"/>
</g>
<g clip-path="url(#clip4)">
<path d="M68.3146 4.08249C68.2337 3.82968 67.9921 3.65592 67.6518 3.60572L64.9528 3.20734L63.7458 0.723356C63.5935 0.410124 63.3562 0.230469 63.0945 0.230469C62.8328 0.230469 62.5954 0.410124 62.4432 0.723356L61.2363 3.20732L58.5372 3.6057C58.1968 3.6559 57.9553 3.82968 57.8744 4.08245C57.7935 4.33523 57.8884 4.62002 58.1347 4.86383L60.0877 6.79731L59.6266 9.52757C59.566 9.88669 59.669 10.1015 59.7661 10.2184C59.8796 10.3551 60.0452 10.4305 60.2324 10.4305C60.374 10.4305 60.5247 10.3883 60.6804 10.3052L63.0945 9.0161L65.5086 10.3051C65.6643 10.3883 65.815 10.4304 65.9566 10.4304H65.9566C66.1439 10.4304 66.3095 10.3551 66.423 10.2183C66.5201 10.1015 66.6231 9.88667 66.5624 9.52752L66.1013 6.79733L68.0543 4.86387C68.3006 4.62006 68.3955 4.33525 68.3146 4.08249Z" fill="#C9C9C9"/>
</g>
<defs>
<clipPath id="clip0">
<rect width="10.4966" height="10.6609" fill="white" transform="translate(0.114746)"/>
</clipPath>
<clipPath id="clip1">
<rect width="10.4966" height="10.6609" fill="white" transform="translate(14.5474)"/>
</clipPath>
<clipPath id="clip2">
<rect width="10.4966" height="10.6609" fill="white" transform="translate(28.9805)"/>
</clipPath>
<clipPath id="clip3">
<rect width="10.4966" height="10.6609" fill="white" transform="translate(43.4131)"/>
</clipPath>
<clipPath id="clip4">
<rect width="10.4966" height="10.6609" fill="white" transform="translate(57.8462)"/>
</clipPath>
</defs>
</svg>
